Love for All and Sharing is the first step to solving all the problems of humanity.

Website I want to share. 
               
   http://www.scenetime.com
 
 
  Credit to EVERYONE for sharing and seeding back
 especially to SCENETIME.COM where i get all my 
 downloads.


 support www.scenetime.com to grow faster.

                             
                                                            
                                                   

.                 ..................................NFO:....................................*******************************************************************************
                       Always.1989.DVDRip.AC3.X264-BARC0DE
*******************************************************************************

-------------------------------------------------------------------------------
                              General Information
-------------------------------------------------------------------------------
Type.................: Movie
Name.................: Always
Movie Information....: http://www.imdb.com/title/tt0096794/
Genre................: Fantasy | Romance | Drama
-------------------------------------------------------------------------------
                                    PLOT
-------------------------------------------------------------------------------

A romantic adventure about a legendary pilot's passion for dare-devil firefighting 
and his girl.  

-------------------------------------------------------------------------------
                                    CAST
-------------------------------------------------------------------------------
Richard Dreyfuss	... 	Pete Sandich
Holly Hunter	... 	Dorinda Durston
Brad Johnson	... 	Ted Baker
John Goodman	... 	Al Yackey
Audrey Hepburn	... 	Hap
Roberts Blossom	... 	Dave
Keith David	... 	Powerhouse
Ed Van Nuys	... 	Nails
Marg Helgenberger	... 	Rachel
Dale Dye	... 	Don
Brian Haley	... 	Alex
James Lashly	... 	Charlie
Michael Steve Jones	... 	Grey
Kim Robillard	... 	Air Traffic Controller

-------------------------------------------------------------------------------
                                    MEDiA iNFO
-------------------------------------------------------------------------------

General
Complete name                    : Always.1989.DVDRip.AC3.X264-BARC0DE.mkv
Format                           : Matroska
File size                        : 1.47 GiB
Duration                         : 1h 57mn
Overall bit rate                 : 1 793 Kbps

Video
ID                               : 1
Format                           : AVC
Format/Info                      : Advanced Video Codec
Format profile                   : High@L3.0
Format settings, CABAC           : Yes
Format settings, ReFrames        : 3 frames
Muxing mode                      : Container profile=Unknown@3.0
Codec ID                         : V_MPEG4/ISO/AVC
Duration                         : 1h 57mn
Bit rate                         : 1 330 Kbps
Width                            : 720 pixels
Height                           : 400 pixels
Display aspect ratio             : 16:9
Frame rate                       : 25.000 fps
Color space                      : YUV
Chroma subsampling               : 4:2:0
Bit depth                        : 8 bits
Scan type                        : Progressive
Bits/(Pixel*Frame)               : 0.185
Stream size                      : 1.07 GiB (73%)
Writing library                  : x264 core 79

Audio
ID                               : 2
Format                           : AC-3
Format/Info                      : Audio Coding 3
Mode extension                   : CM (complete main)
Codec ID                         : A_AC3
Duration                         : 1h 57mn
Bit rate mode                    : Constant
Bit rate                         : 448 Kbps
Channel(s)                       : 5 channels
Channel positions                : Front: L C R, Side: C, LFE
Sampling rate                    : 48.0 KHz
Stream size                      : 376 MiB (25%)
Language                         : English

Text #1
ID                               : 3
Format                           : VobSub
Codec ID                         : S_VOBSUB
Codec ID/Info                    : The same subtitle format used on DVDs
Language                         : English

Text #2
ID                               : 4
Format                           : VobSub
Codec ID                         : S_VOBSUB
Codec ID/Info                    : The same subtitle format used on DVDs
Language                         : French

Text #3
ID                               : 5
Format                           : VobSub
Codec ID                         : S_VOBSUB
Codec ID/Info                    : The same subtitle format used on DVDs
Language                         : Portuguese

Text #4
ID                               : 6
Format                           : VobSub
Codec ID                         : S_VOBSUB
Codec ID/Info                    : The same subtitle format used on DVDs
Language                         : German

Text #5
ID                               : 7
Format                           : VobSub
Codec ID                         : S_VOBSUB
Codec ID/Info                    : The same subtitle format used on DVDs
Language                         : Turkish

Menu
00:00:00.000                     : Chapter 1
00:02:58.200                     : Chapter 2
00:09:34.200                     : Chapter 3
00:21:04.320                     : Chapter 4
00:31:59.320                     : Chapter 5
00:37:02.200                     : Chapter 6
00:42:46.400                     : Chapter 7
00:51:45.600                     : Chapter 8
00:55:33.120                     : Chapter 9
00:59:18.240                     : Chapter 10
01:03:55.640                     : Chapter 11
01:13:17.440                     : Chapter 12
01:17:25.120                     : Chapter 13
01:30:30.560                     : Chapter 14
01:32:35.240                     : Chapter 15
01:37:49.640                     : Chapter 16
01:44:42.120                     : Chapter 17
01:51:35.160                     : Chapter 18